<?xml version="1.0" standalone="no"?>
<!DOCTYPE svg PUBLIC "-//W3C//DTD SVG 20010904//EN"
 "http://www.w3.org/TR/2001/REC-SVG-20010904/DTD/svg10.dtd">
<svg version="1.0" xmlns="http://www.w3.org/2000/svg"
 width="2372.000000pt" height="2104.000000pt" viewBox="0 0 2372.000000 2104.000000"
 preserveAspectRatio="xMidYMid meet">
<metadata>
Created by potrace 1.15, written by Peter Selinger 2001-2017
</metadata>
<g transform="translate(0.000000,2104.000000) scale(0.100000,-0.100000)"
fill="#000000" stroke="none">
<path fill="#ffffff" d="M20301 20882 c-46 -23 -86 -106 -95 -197 -3 -38 -13 -92 -21 -119 -8
-27 -15 -77 -15 -110 -1 -57 -14 -128 -38 -201 -5 -16 -15 -57 -22 -90 -14
-66 -65 -226 -85 -265 -7 -14 -27 -67 -44 -118 -17 -51 -45 -119 -61 -151 -17
-32 -30 -65 -30 -73 0 -8 -4 -18 -10 -24 -5 -5 -25 -39 -43 -74 -154 -298
-220 -419 -282 -515 -51 -77 -145 -271 -157 -323 -6 -26 -13 -123 -15 -217 -4
-162 -3 -174 22 -244 14 -41 25 -83 25 -93 0 -10 12 -42 26 -71 40 -78 74
-185 74 -232 0 -58 -42 -114 -111 -149 -88 -44 -167 -33 -324 46 -151 76 -399
148 -550 161 -299 24 -543 -2 -785 -83 -66 -23 -283 -111 -325 -133 -16 -9
-70 -34 -120 -55 -49 -22 -126 -56 -170 -75 -44 -20 -169 -65 -278 -102 -397
-131 -538 -196 -634 -288 -91 -87 -86 -114 39 -232 95 -89 147 -130 206 -163
26 -14 61 -36 77 -48 39 -29 398 -207 450 -224 22 -7 65 -25 95 -40 30 -15 87
-37 125 -50 39 -13 95 -35 126 -51 30 -15 109 -45 175 -67 65 -22 139 -49 164
-60 107 -49 573 -208 680 -232 30 -7 76 -21 102 -31 49 -19 155 -47 303 -79
50 -11 124 -29 165 -40 41 -11 94 -20 117 -20 23 0 53 -4 67 -10 67 -25 207
-41 501 -58 83 -4 160 -13 172 -20 12 -7 46 -12 77 -12 132 0 423 -105 598
-217 137 -88 349 -298 430 -428 14 -22 33 -47 43 -55 26 -21 89 -108 114 -157
11 -23 32 -59 46 -79 39 -57 166 -319 199 -409 16 -44 44 -118 63 -165 19 -47
43 -116 54 -155 11 -38 37 -126 58 -195 39 -127 51 -171 71 -270 6 -30 18 -78
26 -106 8 -28 14 -63 14 -77 0 -26 8 -67 31 -157 19 -76 32 -265 32 -485 0
-320 -9 -377 -112 -678 -50 -149 -70 -193 -106 -242 -13 -16 -40 -63 -60 -104
-41 -83 -96 -160 -145 -206 -18 -16 -47 -53 -66 -82 -18 -29 -53 -64 -76 -79
-24 -15 -65 -49 -93 -75 -178 -168 -555 -344 -820 -382 -102 -15 -725 -15
-800 0 -33 7 -85 17 -115 24 -152 31 -602 194 -770 279 -82 41 -198 109 -330
193 -47 30 -100 62 -118 71 -61 31 -249 167 -321 232 -25 23 -57 47 -71 54
-38 20 -154 128 -474 441 -160 157 -307 296 -327 307 -41 25 -139 125 -139
142 0 7 -75 90 -167 185 -190 195 -269 284 -297 329 -10 17 -41 57 -70 88 -67
75 -106 123 -143 178 -17 25 -41 54 -53 65 -13 11 -40 43 -61 70 -97 128 -123
161 -140 172 -9 7 -38 44 -63 82 -25 39 -71 98 -102 133 -30 34 -80 98 -110
143 -31 44 -73 105 -94 135 -157 221 -628 922 -695 1034 -22 37 -59 92 -82
124 -69 93 -123 173 -144 213 -10 21 -38 61 -62 88 -60 70 -101 121 -123 156
-10 16 -61 85 -111 153 -51 67 -98 132 -104 144 -6 11 -37 49 -68 83 -71 79
-114 133 -131 165 -7 13 -45 59 -84 102 -128 138 -181 200 -202 234 -29 47
-155 181 -401 427 -327 326 -540 530 -572 547 -27 14 -75 55 -234 200 -40 36
-90 78 -112 93 -22 14 -65 47 -95 72 -30 25 -72 57 -93 73 -64 46 -219 158
-267 193 -61 46 -514 345 -592 392 -35 21 -100 59 -145 85 -45 26 -105 61
-133 77 -120 69 -242 137 -345 191 -60 31 -128 69 -150 84 -51 35 -427 223
-480 240 -22 7 -94 40 -160 73 -66 33 -160 75 -210 93 -49 18 -139 51 -200 74
-154 58 -453 160 -470 160 -8 0 -43 11 -77 24 -35 13 -85 28 -113 34 -27 5
-102 25 -165 45 -63 19 -146 41 -185 47 -38 7 -79 17 -90 23 -18 9 -58 15
-230 35 -33 4 -66 11 -74 16 -14 9 -46 13 -247 34 -44 5 -87 13 -95 18 -54 35
-1916 34 -1969 -1 -8 -5 -55 -13 -105 -17 -225 -17 -291 -24 -305 -33 -8 -5
-40 -13 -70 -17 -89 -13 -152 -24 -200 -37 -25 -6 -83 -20 -130 -30 -47 -11
-128 -31 -180 -46 -52 -14 -118 -32 -147 -39 -75 -20 -151 -45 -213 -72 -30
-12 -107 -43 -170 -68 -115 -45 -510 -239 -592 -291 -91 -56 -155 -95 -199
-119 -25 -14 -60 -36 -76 -50 -16 -14 -83 -61 -149 -105 -65 -45 -141 -99
-169 -121 -27 -22 -70 -54 -95 -72 -44 -31 -103 -81 -218 -184 -31 -28 -77
-65 -102 -82 -53 -36 -490 -473 -490 -489 0 -7 -30 -46 -68 -87 -65 -73 -101
-117 -163 -201 -16 -22 -49 -65 -74 -95 -25 -30 -61 -78 -79 -106 -19 -29 -39
-55 -45 -58 -17 -11 -235 -345 -269 -412 -17 -33 -46 -78 -64 -101 -19 -22
-52 -76 -73 -119 -21 -44 -51 -98 -67 -121 -15 -23 -28 -48 -28 -55 0 -7 -9
-26 -21 -43 -28 -40 -109 -205 -109 -221 0 -7 -22 -57 -49 -111 -27 -54 -52
-109 -56 -123 -4 -14 -26 -61 -47 -104 -22 -44 -46 -98 -53 -120 -7 -23 -30
-79 -50 -126 -51 -119 -241 -687 -266 -794 -21 -94 -29 -122 -103 -357 -25
-81 -46 -157 -46 -170 0 -13 -10 -60 -21 -104 -20 -76 -26 -103 -48 -235 -5
-30 -15 -75 -21 -100 -22 -85 -30 -130 -30 -160 0 -17 -7 -47 -15 -67 -8 -19
-15 -56 -15 -81 0 -46 -9 -108 -30 -212 -7 -30 -15 -98 -20 -150 -12 -148 -30
-280 -42 -309 -16 -40 -29 -220 -37 -501 -4 -168 -10 -265 -19 -283 -17 -40
-17 -604 0 -644 9 -18 15 -114 20 -283 7 -297 21 -494 36 -532 13 -33 31 -181
41 -333 3 -60 10 -116 15 -124 9 -14 22 -103 34 -231 4 -41 11 -81 16 -89 5
-8 13 -46 18 -85 15 -131 19 -151 33 -201 18 -67 35 -164 35 -205 0 -19 6 -52
14 -75 8 -22 20 -67 26 -100 7 -33 18 -80 25 -105 18 -60 35 -146 35 -176 0
-13 11 -56 25 -97 13 -40 27 -93 31 -117 3 -25 17 -81 30 -125 12 -44 30 -107
39 -140 62 -238 231 -756 322 -987 40 -103 73 -192 73 -198 0 -6 10 -30 22
-53 11 -23 47 -105 78 -182 32 -77 79 -189 105 -249 54 -123 368 -748 395
-786 10 -14 39 -68 65 -120 47 -94 60 -116 178 -302 34 -54 82 -133 106 -175
62 -109 330 -510 394 -591 51 -64 128 -175 172 -247 12 -19 45 -60 75 -92 60
-65 105 -121 134 -168 10 -16 41 -56 70 -87 96 -108 131 -150 152 -184 20 -32
66 -84 327 -359 64 -68 117 -130 117 -136 0 -18 395 -414 450 -451 25 -17 99
-83 166 -147 126 -121 271 -249 314 -278 14 -9 61 -50 106 -92 81 -76 185
-164 259 -220 190 -141 235 -176 365 -288 28 -23 59 -47 71 -53 12 -7 76 -51
143 -99 139 -100 575 -390 623 -415 18 -9 60 -36 95 -60 35 -24 92 -58 128
-76 36 -18 72 -38 80 -45 8 -8 74 -43 145 -80 72 -37 137 -73 145 -80 8 -7 93
-52 188 -99 96 -48 197 -103 226 -122 28 -19 77 -43 108 -54 30 -10 111 -46
178 -80 68 -33 129 -60 137 -60 7 0 42 -14 76 -31 84 -43 325 -141 472 -193
66 -23 129 -47 140 -53 26 -14 534 -183 549 -183 10 0 80 -20 261 -75 44 -13
105 -29 135 -36 30 -6 84 -21 120 -32 36 -11 94 -26 130 -33 36 -7 92 -20 125
-28 33 -9 85 -20 115 -25 30 -5 90 -19 134 -30 43 -12 96 -21 118 -21 22 0 48
-5 60 -11 23 -12 106 -27 218 -38 41 -4 95 -13 120 -19 111 -27 144 -32 204
-32 36 0 77 -5 93 -12 27 -11 95 -18 343 -35 63 -5 122 -13 130 -18 22 -14
214 -25 635 -34 297 -6 381 -11 425 -25 70 -21 200 -21 270 0 44 14 127 19
410 25 402 10 578 19 600 34 8 5 76 13 150 17 173 9 292 22 309 33 14 8 111
22 241 33 41 4 81 11 89 16 8 5 46 13 85 17 116 14 182 26 204 38 11 6 40 11
64 11 24 0 79 10 123 21 44 12 103 25 130 30 112 19 339 78 590 155 44 13 91
24 105 24 14 0 79 18 145 40 66 22 125 40 131 40 37 0 870 296 898 319 6 5 65
30 131 55 66 25 161 66 212 91 50 25 96 45 101 45 12 0 171 72 222 101 19 10
172 89 340 174 168 86 341 178 385 206 44 27 123 72 175 99 52 27 115 63 140
79 25 17 48 31 52 31 4 0 43 24 86 53 43 28 112 72 153 97 40 25 88 58 106 73
18 16 67 50 110 75 43 26 98 62 123 80 143 104 202 146 265 188 39 25 91 65
116 88 26 22 64 53 85 68 22 16 64 48 94 73 30 25 75 59 99 75 24 16 70 53
102 82 143 129 186 165 214 183 44 27 137 110 324 291 91 89 180 168 196 177
37 19 435 419 435 437 0 7 58 74 130 149 297 312 333 351 354 384 20 33 55 74
194 227 34 38 62 74 62 80 0 6 28 42 63 80 34 38 77 88 95 112 135 177 167
221 208 282 26 38 79 111 118 162 110 144 176 243 286 429 25 42 64 104 88
138 23 34 65 107 93 162 29 55 64 119 80 141 34 50 329 643 329 662 0 7 11 30
25 50 14 20 25 41 25 46 0 6 15 44 34 86 43 95 116 287 194 510 32 92 91 287
118 390 9 36 26 94 36 130 31 100 37 129 48 207 5 40 16 94 24 120 21 68 64
260 70 313 8 61 22 137 35 185 6 22 11 59 11 82 0 42 6 78 31 178 7 28 16 82
20 120 17 157 27 223 35 236 5 8 12 68 16 134 11 174 23 279 34 295 9 15 14
94 32 520 5 127 13 224 20 237 16 30 17 560 1 600 -6 15 -15 109 -20 208 -15
312 -24 430 -33 443 -8 14 -23 129 -34 277 -4 50 -11 96 -16 103 -8 14 -22 96
-35 207 -3 33 -10 66 -15 73 -5 8 -12 39 -17 70 -5 32 -13 84 -18 117 -5 33
-13 71 -19 85 -5 14 -15 50 -21 80 -7 30 -18 80 -26 110 -8 30 -23 89 -33 130
-61 246 -233 748 -334 975 -62 138 -360 726 -408 805 -22 36 -52 87 -68 114
-15 26 -42 66 -60 89 -18 22 -40 54 -49 71 -8 17 -30 54 -48 81 -61 95 -106
174 -119 212 -7 21 -25 56 -40 77 -15 22 -29 51 -33 65 -3 14 -25 67 -49 116
-72 152 -164 394 -164 432 0 10 -6 35 -14 58 -8 22 -20 67 -26 100 -7 33 -17
74 -23 90 -14 40 -25 147 -36 348 -6 92 -13 173 -17 179 -8 13 -17 92 -33 275
-5 62 -12 117 -16 122 -10 17 -45 213 -45 254 0 21 -6 59 -14 85 -19 65 -36
161 -36 205 0 20 -11 66 -24 104 -28 80 -46 154 -46 186 0 13 -6 43 -14 68 -7
24 -19 69 -26 99 -6 30 -17 75 -24 100 -8 25 -21 79 -31 120 -10 41 -35 128
-56 194 -22 65 -39 123 -39 130 0 20 -186 566 -228 671 -64 159 -132 333 -132
339 0 7 -69 155 -158 336 -36 75 -114 207 -175 297 -179 267 -282 341 -396
285z"/>
<path d="M11865 14564 c-435 -58 -886 -257 -1225 -542 -433 -363 -737 -887
-829 -1432 -48 -279 -49 -551 -4 -814 105 -622 472 -1198 998 -1567 639 -449
1456 -559 2190 -295 135 49 358 161 485 244 364 237 677 589 860 967 171 352
244 668 244 1055 0 361 -64 655 -216 993 -334 743 -1062 1283 -1878 1393 -133
17 -489 17 -625 -2z"/>
</g>
</svg>
